<svg height="512" viewBox="0 0 128 128" width="512" xmlns="http://www.w3.org/2000/svg"><g id="Circle_Grid" data-name="Circle Grid"><circle cx="64" cy="64" fill="#2cbfae" r="64"/></g><g id="icon"><rect fill="#f6b863" height="79.491" rx="3.613" width="63.424" x="32.288" y="29.815"/><path d="m37.105 34.633h53.789v69.856h-53.789z" fill="#eeefee"/><rect fill="#575b6d" height="10.739" rx="2.264" width="27.011" x="50.495" y="27.306"/><path d="m64 18.694a6.163 6.163 0 0 0 -6.16 6.16v5.26h12.31v-5.26a6.154 6.154 0 0 0 -6.15-6.16zm0 8.06a2.355 2.355 0 1 1 2.35-2.35 2.347 2.347 0 0 1 -2.35 2.35z" fill="#575b6d"/><g fill="#dbd8dd"><path d="m42.187 72.319h43.625v2.313h-43.625z"/><path d="m42.187 80.423h43.625v2.313h-43.625z"/><path d="m42.187 88.527h43.625v2.313h-43.625z"/><path d="m51.083 96.632h25.834v2.313h-25.834z"/></g><circle cx="64" cy="54.611" fill="#ef5261" r="11.917"/><path d="m64 64.121a9.511 9.511 0 1 1 9.511-9.51 9.521 9.521 0 0 1 -9.511 9.51z" fill="#eeefee"/><path d="m60.852 58.723-2.145-2.146a1.435 1.435 0 0 1 0-2.029 1.435 1.435 0 0 1 2.03 0l1.22 1.22 5.306-5.306a1.435 1.435 0 0 1 2.03 0 1.435 1.435 0 0 1 0 2.029l-6.232 6.232a1.562 1.562 0 0 1 -2.209 0z" fill="#ef5261"/></g></svg>