<svg id="svg" version="1.1" xmlns="http://www.w3.org/2000/svg" xmlns:xlink="http://www.w3.org/1999/xlink" width="400" height="400" viewBox="0, 0, 400,400"><g id="svgg"><path id="path0" d="M11.200 46.000 C 11.200 46.220,10.750 46.400,10.200 46.400 C 9.650 46.400,9.200 46.580,9.200 46.800 C 9.200 47.020,8.927 47.200,8.593 47.200 C 7.801 47.200,2.800 52.201,2.800 52.993 C 2.800 53.327,2.620 53.600,2.400 53.600 C 2.180 53.600,2.000 53.960,2.000 54.400 C 2.000 54.840,1.820 55.200,1.600 55.200 C 1.337 55.200,1.200 64.267,1.200 81.600 L 1.200 108.001 199.900 107.900 L 398.600 107.800 398.703 81.500 C 398.771 64.040,398.670 55.200,398.403 55.200 C 398.181 55.200,398.000 54.840,398.000 54.400 C 398.000 53.960,397.820 53.600,397.600 53.600 C 397.380 53.600,397.200 53.316,397.200 52.969 C 397.200 52.203,392.130 47.200,391.354 47.200 C 391.049 47.200,390.800 47.020,390.800 46.800 C 390.800 46.580,390.451 46.400,390.024 46.400 C 389.597 46.400,389.136 46.220,389.000 46.000 C 388.657 45.445,11.200 45.445,11.200 46.000 M318.592 72.115 C 323.010 74.617,323.051 80.813,318.666 83.383 C 312.973 86.719,306.468 80.341,309.715 74.608 C 310.823 72.652,313.232 71.213,315.400 71.213 C 316.323 71.213,317.674 71.595,318.592 72.115 M342.831 72.110 C 347.245 75.084,347.120 80.921,342.588 83.487 C 338.990 85.525,334.533 83.615,333.206 79.466 C 331.491 74.103,338.191 68.983,342.831 72.110 M367.026 72.194 C 371.819 75.003,371.168 81.678,365.881 83.925 C 361.892 85.620,357.200 82.292,357.200 77.766 C 357.200 72.591,362.538 69.564,367.026 72.194 " stroke="none" fill="#7b8c9c" fill-rule="evenodd"></path><path id="path1" d="M336.162 72.251 C 332.455 74.767,331.848 79.009,334.748 82.133 C 338.841 86.540,346.000 83.784,346.000 77.800 C 346.000 72.572,340.370 69.396,336.162 72.251 M29.868 131.065 C 29.721 131.213,29.600 174.683,29.600 227.667 L 29.600 324.000 75.001 324.000 L 120.402 324.000 120.301 227.500 L 120.200 131.000 75.168 130.898 C 50.401 130.842,30.016 130.917,29.868 131.065 M247.862 217.900 C 247.760 218.065,275.272 218.200,309.000 218.200 C 342.728 218.200,370.240 218.065,370.138 217.900 C 370.036 217.735,342.524 217.600,309.000 217.600 C 275.476 217.600,247.964 217.735,247.862 217.900 M247.703 323.600 C 247.881 324.254,369.408 324.752,370.059 324.101 C 370.224 323.936,342.885 323.846,309.305 323.903 C 260.658 323.984,248.178 323.903,247.895 323.503 C 247.630 323.128,247.581 323.153,247.703 323.600 " stroke="none" fill="#fbdb84" fill-rule="evenodd"></path><path id="path2" d="M312.208 72.115 C 307.820 74.600,307.801 80.843,312.174 83.406 C 317.867 86.742,324.339 80.353,321.085 74.608 C 319.977 72.652,317.568 71.213,315.400 71.213 C 314.477 71.213,313.126 71.595,312.208 72.115 M138.882 131.278 C 138.322 131.838,138.172 322.622,138.731 323.502 C 138.984 323.900,148.309 323.983,184.025 323.902 L 229.000 323.800 229.000 227.400 L 229.000 131.000 184.182 130.898 C 149.654 130.820,139.253 130.907,138.882 131.278 " stroke="none" fill="#5cccac" fill-rule="evenodd"></path><path id="path3" d="M360.369 72.110 C 355.919 75.108,356.147 81.226,360.798 83.599 C 364.194 85.331,368.288 83.724,369.833 80.051 C 372.147 74.548,365.290 68.793,360.369 72.110 M247.868 218.265 C 247.485 218.648,247.547 322.897,247.931 323.501 C 248.184 323.900,260.708 323.982,309.224 323.901 L 370.200 323.800 370.200 271.000 L 370.200 218.200 309.168 218.099 C 275.600 218.043,248.015 218.118,247.868 218.265 " stroke="none" fill="#f37c6c" fill-rule="evenodd"></path><path id="path4" d="M247.785 131.299 C 247.679 131.574,247.640 147.100,247.697 165.800 L 247.800 199.800 309.000 199.800 L 370.200 199.800 370.200 165.400 L 370.200 131.000 309.088 130.899 C 260.409 130.818,247.937 130.899,247.785 131.299 " stroke="none" fill="#45b4e4" fill-rule="evenodd"></path><path id="path5" d="M199.900 107.900 L 1.200 108.001 1.200 226.400 C 1.200 305.067,1.334 344.800,1.600 344.800 C 1.820 344.800,2.000 345.160,2.000 345.600 C 2.000 346.040,2.180 346.400,2.400 346.400 C 2.620 346.400,2.800 346.673,2.800 347.007 C 2.800 347.799,7.801 352.800,8.593 352.800 C 8.927 352.800,9.200 352.980,9.200 353.200 C 9.200 353.420,9.650 353.600,10.200 353.600 C 10.750 353.600,11.200 353.780,11.200 354.000 C 11.200 354.512,388.100 354.558,389.105 354.047 C 389.487 353.852,390.330 353.447,390.978 353.147 C 392.575 352.406,397.200 347.881,397.200 347.060 C 397.200 346.697,397.380 346.400,397.600 346.400 C 397.820 346.400,398.000 346.040,398.000 345.600 C 398.000 345.160,398.180 344.800,398.400 344.800 C 398.620 344.800,398.800 344.001,398.800 343.024 C 398.800 342.047,398.980 341.136,399.200 341.000 C 399.845 340.601,399.745 107.571,399.100 107.700 C 398.825 107.754,309.185 107.845,199.900 107.900 M120.301 227.500 L 120.402 324.000 75.001 324.000 L 29.600 324.000 29.600 227.667 C 29.600 174.683,29.721 131.213,29.868 131.065 C 30.016 130.917,50.401 130.842,75.168 130.898 L 120.200 131.000 120.301 227.500 M229.000 227.400 L 229.000 323.800 184.025 323.902 C 148.309 323.983,138.984 323.900,138.731 323.502 C 138.172 322.622,138.322 131.838,138.882 131.278 C 139.253 130.907,149.654 130.820,184.182 130.898 L 229.000 131.000 229.000 227.400 M370.200 165.400 L 370.200 199.800 309.000 199.800 L 247.800 199.800 247.697 165.800 C 247.640 147.100,247.679 131.574,247.785 131.299 C 247.937 130.899,260.409 130.818,309.088 130.899 L 370.200 131.000 370.200 165.400 M370.200 271.000 L 370.200 324.200 309.000 324.200 L 247.800 324.200 247.697 271.400 C 247.641 242.360,247.680 218.374,247.785 218.099 C 247.937 217.699,260.409 217.618,309.088 217.699 L 370.200 217.800 370.200 271.000 " stroke="none" fill="#ebf2f2" fill-rule="evenodd"></path></g></svg>