<svg height="480pt" viewBox="0 -4 480 480" width="480pt" xmlns="http://www.w3.org/2000/svg"><path d="m240 0-208 120v344h416v-344zm0 0" fill="#a0a0a0"/><path d="m0 456h480v16h-480zm0 0" fill="#3f3f3f"/><path d="m376.800781 168h-161.601562c-8.800781 0-15.199219 7.199219-15.199219 16v176h192v-176c0-8.800781-6.398438-16-15.199219-16zm0 0" fill="#ceb195"/><path d="m200 232h96v64h-96zm0 0" fill="#e2c8ac"/><path d="m296 168h80c8.800781 0 16 7.199219 16 16v48h-96zm0 0" fill="#e2c8ac"/><path d="m400 360h-232v-120h-46.398438c-5.601562 0-11.203124 3.199219-14.402343 8.800781l-57.597657 108c-.800781 1.597657-1.601562 4.800781-1.601562 7.199219v52c0 8.800781 7.199219 16 16 16h336c8.800781 0 16-7.199219 16-16v-40c0-8.800781-7.199219-16-16-16zm0 0" fill="#2b4a66"/><path d="m152 432c0 17.671875-14.328125 32-32 32s-32-14.328125-32-32 14.328125-32 32-32 32 14.328125 32 32zm0 0" fill="#3f3f3f"/><path d="m360 432c0 17.671875-14.328125 32-32 32s-32-14.328125-32-32 14.328125-32 32-32 32 14.328125 32 32zm0 0" fill="#3f3f3f"/><path d="m48 360h120v-120h-46.398438c-5.601562 0-11.203124 3.199219-14.402343 8.800781zm0 0" fill="#3a6289"/><path d="m232 192h32v16h-32zm0 0" fill="#e2c8ac"/><path d="m328 192h32v16h-32zm0 0" fill="#ceb195"/><path d="m328 256h32v16h-32zm0 0" fill="#e2c8ac"/><path d="m232 256h32v16h-32zm0 0" fill="#ceb195"/><path d="m232 320h32v16h-32zm0 0" fill="#e2c8ac"/><path d="m320 424h16v16h-16zm0 0" fill="#727272"/><path d="m112 424h16v16h-16zm0 0" fill="#727272"/><path d="m240 48-40 24v56h80v-56zm0 0" fill="#8c8c8c"/><path d="m296 296h96v64h-96zm0 0" fill="#e2c8ac"/><path d="m328 320h32v16h-32zm0 0" fill="#ceb195"/><path d="m232 128h16v-75.199219l-8-4.800781-8 4.800781zm0 0" fill="#a0a0a0"/><path d="m160 216h16v144h-16zm0 0" fill="#2b4a66"/></svg>