<svg id="Capa_1" enable-background="new 0 0 512.041 512.041" height="512" viewBox="0 0 512.041 512.041" width="512" xmlns="http://www.w3.org/2000/svg"><g><path d="m191.841 28.178h219.9v219.9h-219.9z" fill="#ffd800"/><path d="m301.791 28.178h109.95v219.9h-109.95z" fill="#ffc300"/><path d="m499.72 340.453-34 32.79-109.99 106.08h-187.16l-89.07-32.52v-136.13c20.06-23.09 49.03-36.32 79.59-36.32 28.34 0 55.32 11.38 75.09 31.45h81.76c2.06.01 4.1.37 6.02 1.1 12.95 4.92 22.17 17.47 22.13 32.13-.05 18.8-16.15 34.18-34.96 34.18h-95.68v30.32h96.36c23.02 0 43.26-12.11 54.69-30.29 5.04-8 8.37-17.19 9.48-27.04l70.88-64.37c8-7.26 18.35-10.95 29.14-10.37s20.69 5.35 27.87 13.43c14.35 16.16 13.41 40.56-2.15 55.56z" fill="#f2cecd"/><path d="m465.72 373.243-109.99 106.08h-187.16l-89.07-32.52v-73.56h133.95v30.29h96.36c23.02 0 43.26-12.11 54.69-30.29z" fill="#e8b4b5"/><path d="m82.33 305.633v135.23c0 23.71-19.29 43-43 43h-39.33v-221.23h39.33c23.71 0 43 19.29 43 43z" fill="#55cbfd"/><path d="m82.33 373.243v67.62c0 23.71-19.29 43-43 43h-39.33v-110.62z" fill="#01b1fd"/><path d="m269.901 28.178h63.79v80.55h-63.79z" fill="#ff9000"/><path d="m301.791 28.178h31.9v80.55h-31.9z" fill="#ff631a"/></g></svg>