<svg height="512pt" viewBox="0 0 512 512" width="512pt" xmlns="http://www.w3.org/2000/svg"><path d="m512 256c0 141.386719-114.613281 256-256 256s-256-114.613281-256-256 114.613281-256 256-256 256 114.613281 256 256zm0 0" fill="#ff633e"/><path d="m512 256c0-24.308594-3.390625-47.828125-9.71875-70.109375l-114.628906-114.628906h-278.484375v354.292969l76.722656 76.726562c22.28125 6.328125 45.800781 9.71875 70.109375 9.71875 141.386719 0 256-114.613281 256-256zm0 0" fill="#ee2600"/><path d="m124.347656 86.441406h278.484375v354.296875h-278.484375zm0 0" fill="#00e8f2"/><path d="m248.410156 86.441406h154.417969v354.296875h-154.417969zm0 0" fill="#00b7be"/><path d="m387.652344 71.261719h-278.484375v354.292969h229.050781l49.433594-49.433594zm0 0" fill="#fff"/><path d="m387.648438 71.261719v304.859375l-49.429688 49.4375h-89.808594v-354.296875zm0 0" fill="#fff5cb"/><path d="m338.21875 425.554688 49.433594-49.433594h-49.433594zm0 0" fill="#fdc000"/><path d="m168.683594 317.847656h44.578125v18.535156h-44.578125zm0 0" fill="#6d76e7"/><path d="m229.265625 317.847656h98.871094v18.535156h-98.871094zm0 0" fill="#6d76e7"/><path d="m248.410156 317.851562h79.730469v18.527344h-79.730469zm0 0" fill="#1c2ede"/><path d="m328.136719 292.929688h-44.578125v-18.53125h44.578125zm0 0" fill="#1c2ede"/><path d="m267.554688 292.929688h-98.871094v-18.53125h98.871094zm0 0" fill="#6d76e7"/><path d="m248.410156 274.398438h19.148438v18.53125h-19.148438zm0 0" fill="#1c2ede"/><path d="m328.136719 379.835938h-44.578125v-18.535157h44.578125zm0 0" fill="#1c2ede"/><path d="m267.554688 379.835938h-98.871094v-18.535157h98.871094zm0 0" fill="#6d76e7"/><path d="m248.410156 361.300781h19.148438v18.539063h-19.148438zm0 0" fill="#1c2ede"/><path d="m322.484375 197.992188v-28.980469h-13.941406c-1.527344-6.367188-4.039063-12.351563-7.367188-17.78125l9.859375-9.863281-20.492187-20.488282-9.859375 9.859375c-5.433594-3.332031-11.417969-5.84375-17.785156-7.371093v-13.941407h-28.980469v13.941407c-6.367188 1.527343-12.351563 4.039062-17.78125 7.371093l-9.859375-9.859375-20.492188 20.488282 9.859375 9.863281c-3.328125 5.429687-5.839843 11.414062-7.371093 17.78125h-13.941407v28.980469h13.941407c1.53125 6.367187 4.042968 12.351562 7.371093 17.78125l-9.859375 9.863281 20.492188 20.492187 9.859375-9.863281c5.429687 3.332031 11.414062 5.84375 17.78125 7.371094v13.941406h28.980469v-13.941406c6.367187-1.527344 12.351562-4.039063 17.785156-7.371094l9.859375 9.863281 20.492187-20.492187-9.859375-9.863281c3.328125-5.429688 5.839844-11.414063 7.367188-17.78125zm-74.074219 17.863281c-17.871094 0-32.351562-14.484375-32.351562-32.351563 0-17.871094 14.480468-32.351562 32.351562-32.351562s32.351563 14.480468 32.351563 32.351562c0 17.867188-14.480469 32.351563-32.351563 32.351563zm0 0" fill="#aeadb3"/><path d="m322.484375 197.992188v-28.980469h-13.941406c-1.527344-6.367188-4.042969-12.351563-7.367188-17.78125l9.859375-9.859375-20.496094-20.496094-9.855468 9.863281c-5.433594-3.328125-11.417969-5.839843-17.785156-7.371093v-13.9375h-14.488282v41.71875c17.867188 0 32.351563 14.484374 32.351563 32.355468 0 17.867188-14.484375 32.351563-32.351563 32.351563v41.71875h14.492188v-13.9375c6.363281-1.53125 12.347656-4.042969 17.78125-7.371094l9.859375 9.863281 20.496093-20.492187-9.863281-9.859375c3.328125-5.433594 5.839844-11.417969 7.367188-17.785156zm0 0" fill="#8b8992"/><path d="m248.410156 141.53125c-23.179687 0-41.96875 18.789062-41.96875 41.972656 0 23.179688 18.789063 41.96875 41.96875 41.96875 23.179688 0 41.96875-18.789062 41.96875-41.96875 0-23.183594-18.789062-41.972656-41.96875-41.972656zm0 63.644531c-11.972656 0-21.671875-9.703125-21.671875-21.671875 0-11.972656 9.699219-21.675781 21.671875-21.675781s21.671875 9.703125 21.671875 21.675781c0 11.96875-9.703125 21.671875-21.671875 21.671875zm0 0" fill="#8b8992"/><path d="m248.410156 141.53125v20.300781c11.96875 0 21.671875 9.699219 21.671875 21.671875 0 11.96875-9.699219 21.671875-21.671875 21.671875v20.296875c23.179688 0 41.96875-18.789062 41.96875-41.96875 0-23.183594-18.789062-41.972656-41.96875-41.972656zm0 0" fill="#57555c"/></svg>